<mxfile host="diagram.qzrok.cn" modified="2021-04-28T07:14:11.490Z" agent="Mozilla/5.0 (Windows NT 10.0; Win64; x64) AppleWebKit/537.36 (KHTML, like Gecko) Chrome/90.0.4430.85 Safari/537.36" etag="x8iNTftnTSBqSeBwN1MD" version="12.9.3" type="github">
  <diagram name="Page-1" id="822b0af5-4adb-64df-f703-e8dfc1f81529">
    <mxGraphModel dx="2031" dy="1089" grid="0" gridSize="10" guides="1" tooltips="1" connect="1" arrows="1" fold="1" page="1" pageScale="1" pageWidth="1100" pageHeight="850" background="#ffffff" math="0" shadow="0">
      <root>
        <mxCell id="0" />
        <mxCell id="1" parent="0" />
        <mxCell id="2n3gXWghCNfiPmjp-9Hf-4" value="&lt;font style=&quot;font-size: 22px&quot;&gt;服务器&lt;/font&gt;" style="verticalLabelPosition=bottom;aspect=fixed;html=1;verticalAlign=top;strokeColor=none;align=center;outlineConnect=0;shape=mxgraph.citrix.provisioning_server;" vertex="1" parent="1">
          <mxGeometry x="701" y="448" width="174.71" height="200" as="geometry" />
        </mxCell>
        <mxCell id="2n3gXWghCNfiPmjp-9Hf-5" value="&lt;font style=&quot;font-size: 22px&quot;&gt;请求&lt;/font&gt;" style="verticalLabelPosition=bottom;aspect=fixed;html=1;verticalAlign=top;strokeColor=none;align=center;outlineConnect=0;shape=mxgraph.citrix.thin_client;" vertex="1" parent="1">
          <mxGeometry x="201" y="515.5" width="95" height="95" as="geometry" />
        </mxCell>
        <object label="&lt;font style=&quot;font-size: 22px&quot; color=&quot;#ff1940&quot;&gt;&lt;b&gt;&lt;font style=&quot;font-size: 22px&quot;&gt;Fidder（代理&lt;/font&gt;）&lt;/b&gt;&lt;/font&gt;" id="2n3gXWghCNfiPmjp-9Hf-6">
          <mxCell style="verticalLabelPosition=bottom;aspect=fixed;html=1;verticalAlign=top;strokeColor=#6c8ebf;align=center;outlineConnect=0;shape=mxgraph.citrix.process;fillColor=#1296FC;" vertex="1" parent="1">
            <mxGeometry x="451" y="515.5" width="79.68" height="95" as="geometry" />
          </mxCell>
        </object>
        <mxCell id="2n3gXWghCNfiPmjp-9Hf-7" value="" style="rounded=0;comic=1;strokeWidth=4;endArrow=blockThin;html=1;fontFamily=Comic Sans MS;fontStyle=1;strokeColor=#7EA6E0;" edge="1" parent="1">
          <mxGeometry width="50" height="50" relative="1" as="geometry">
            <mxPoint x="311" y="535.5" as="sourcePoint" />
            <mxPoint x="466" y="535.5" as="targetPoint" />
          </mxGeometry>
        </mxCell>
        <mxCell id="2n3gXWghCNfiPmjp-9Hf-8" value="" style="rounded=0;comic=1;strokeWidth=4;endArrow=blockThin;html=1;fontFamily=Comic Sans MS;fontStyle=1;strokeColor=#7EA6E0;" edge="1" parent="1">
          <mxGeometry width="50" height="50" relative="1" as="geometry">
            <mxPoint x="541" y="539.5" as="sourcePoint" />
            <mxPoint x="691" y="536.5" as="targetPoint" />
          </mxGeometry>
        </mxCell>
        <mxCell id="2n3gXWghCNfiPmjp-9Hf-9" value="" style="rounded=0;comic=1;strokeWidth=4;endArrow=blockThin;html=1;fontFamily=Comic Sans MS;fontStyle=1;strokeColor=#53CF91;" edge="1" parent="1">
          <mxGeometry width="50" height="50" relative="1" as="geometry">
            <mxPoint x="691" y="599.5" as="sourcePoint" />
            <mxPoint x="511" y="599.5" as="targetPoint" />
            <Array as="points" />
          </mxGeometry>
        </mxCell>
        <mxCell id="2n3gXWghCNfiPmjp-9Hf-12" value="" style="rounded=0;comic=1;strokeWidth=4;endArrow=blockThin;html=1;fontFamily=Comic Sans MS;fontStyle=1;strokeColor=#53CF91;" edge="1" parent="1">
          <mxGeometry width="50" height="50" relative="1" as="geometry">
            <mxPoint x="451" y="595.5" as="sourcePoint" />
            <mxPoint x="301" y="595.5" as="targetPoint" />
            <Array as="points" />
          </mxGeometry>
        </mxCell>
        <mxCell id="2n3gXWghCNfiPmjp-9Hf-15" value="&lt;span style=&quot;font-size: 22px&quot;&gt;服务器&lt;/span&gt;" style="verticalLabelPosition=bottom;aspect=fixed;html=1;verticalAlign=top;strokeColor=none;align=center;outlineConnect=0;shape=mxgraph.citrix.provisioning_server;" vertex="1" parent="1">
          <mxGeometry x="691" y="131" width="174.71" height="200" as="geometry" />
        </mxCell>
        <mxCell id="2n3gXWghCNfiPmjp-9Hf-16" value="&lt;font style=&quot;font-size: 22px&quot;&gt;请求&lt;/font&gt;" style="verticalLabelPosition=bottom;aspect=fixed;html=1;verticalAlign=top;strokeColor=none;align=center;outlineConnect=0;shape=mxgraph.citrix.thin_client;" vertex="1" parent="1">
          <mxGeometry x="191" y="198.5" width="95" height="95" as="geometry" />
        </mxCell>
        <mxCell id="2n3gXWghCNfiPmjp-9Hf-18" value="" style="rounded=0;comic=1;strokeWidth=4;endArrow=blockThin;html=1;fontFamily=Comic Sans MS;fontStyle=1;strokeColor=#7EA6E0;" edge="1" parent="1">
          <mxGeometry width="50" height="50" relative="1" as="geometry">
            <mxPoint x="301" y="218.5" as="sourcePoint" />
            <mxPoint x="671" y="219" as="targetPoint" />
          </mxGeometry>
        </mxCell>
        <mxCell id="2n3gXWghCNfiPmjp-9Hf-21" value="" style="rounded=0;comic=1;strokeWidth=4;endArrow=blockThin;html=1;fontFamily=Comic Sans MS;fontStyle=1;strokeColor=#53CF91;" edge="1" parent="1">
          <mxGeometry width="50" height="50" relative="1" as="geometry">
            <mxPoint x="671" y="279" as="sourcePoint" />
            <mxPoint x="291" y="278.5" as="targetPoint" />
            <Array as="points" />
          </mxGeometry>
        </mxCell>
        <mxCell id="2n3gXWghCNfiPmjp-9Hf-24" value="&lt;font style=&quot;font-size: 20px&quot; color=&quot;#7ea6e0&quot;&gt;请求&lt;/font&gt;" style="text;html=1;align=center;verticalAlign=middle;resizable=0;points=[];autosize=1;" vertex="1" parent="1">
          <mxGeometry x="441" y="191" width="60" height="20" as="geometry" />
        </mxCell>
        <mxCell id="2n3gXWghCNfiPmjp-9Hf-25" value="&lt;font style=&quot;font-size: 20px&quot; color=&quot;#7ea6e0&quot;&gt;请求&lt;/font&gt;" style="text;html=1;align=center;verticalAlign=middle;resizable=0;points=[];autosize=1;" vertex="1" parent="1">
          <mxGeometry x="351" y="508" width="60" height="20" as="geometry" />
        </mxCell>
        <mxCell id="2n3gXWghCNfiPmjp-9Hf-26" value="&lt;font style=&quot;font-size: 20px&quot; color=&quot;#7ea6e0&quot;&gt;请求(代理)&lt;/font&gt;" style="text;html=1;align=center;verticalAlign=middle;resizable=0;points=[];autosize=1;" vertex="1" parent="1">
          <mxGeometry x="546" y="508" width="110" height="20" as="geometry" />
        </mxCell>
        <mxCell id="2n3gXWghCNfiPmjp-9Hf-27" value="&lt;font color=&quot;#53cf91&quot;&gt;&lt;span style=&quot;font-size: 20px&quot;&gt;响应&lt;/span&gt;&lt;/font&gt;" style="text;html=1;align=center;verticalAlign=middle;resizable=0;points=[];autosize=1;" vertex="1" parent="1">
          <mxGeometry x="441" y="251" width="60" height="20" as="geometry" />
        </mxCell>
        <mxCell id="2n3gXWghCNfiPmjp-9Hf-28" value="&lt;font color=&quot;#53cf91&quot;&gt;&lt;span style=&quot;font-size: 20px&quot;&gt;响应(代理)&lt;/span&gt;&lt;/font&gt;" style="text;html=1;align=center;verticalAlign=middle;resizable=0;points=[];autosize=1;" vertex="1" parent="1">
          <mxGeometry x="326" y="568" width="110" height="20" as="geometry" />
        </mxCell>
        <mxCell id="2n3gXWghCNfiPmjp-9Hf-29" value="&lt;font color=&quot;#53cf91&quot;&gt;&lt;span style=&quot;font-size: 20px&quot;&gt;响应&lt;/span&gt;&lt;/font&gt;" style="text;html=1;align=center;verticalAlign=middle;resizable=0;points=[];autosize=1;" vertex="1" parent="1">
          <mxGeometry x="571" y="568" width="60" height="20" as="geometry" />
        </mxCell>
        <mxCell id="2n3gXWghCNfiPmjp-9Hf-32" value="&lt;font style=&quot;font-size: 16px&quot;&gt;正常情况&lt;/font&gt;" style="text;html=1;align=center;verticalAlign=middle;resizable=0;points=[];autosize=1;fillColor=#ffe6cc;strokeColor=none;shadow=0;glass=0;comic=1;" vertex="1" parent="1">
          <mxGeometry x="444" y="357" width="74" height="19" as="geometry" />
        </mxCell>
        <mxCell id="2n3gXWghCNfiPmjp-9Hf-33" value="&lt;font style=&quot;font-size: 16px&quot;&gt;Fidder 代理情况&lt;br&gt;&lt;/font&gt;" style="text;html=1;align=center;verticalAlign=middle;resizable=0;points=[];autosize=1;fillColor=#ffe6cc;strokeColor=none;shadow=0;glass=0;comic=1;" vertex="1" parent="1">
          <mxGeometry x="419" y="705" width="124" height="19" as="geometry" />
        </mxCell>
      </root>
    </mxGraphModel>
  </diagram>
</mxfile>
